<?xml version="1.0" encoding="UTF-8" standalone="no"?>
<!DOCTYPE svg PUBLIC "-//W3C//DTD SVG 1.1//EN" "http://www.w3.org/Graphics/SVG/1.1/DTD/svg11.dtd">
<svg width="100%" height="100%" viewBox="0 0 2048 2048" version="1.1" xmlns="http://www.w3.org/2000/svg" xmlns:xlink="http://www.w3.org/1999/xlink" xml:space="preserve" style="fill-rule:evenodd;clip-rule:evenodd;stroke-linejoin:round;stroke-miterlimit:1.41421;">
    <circle id="Background" cx="1024" cy="1024" r="1024" style="fill:rgb(31,34,48);"/>
    <g id="Starburst">
        <g transform="matrix(1.19945,0,0,1.25814,-204.233,-264.337)">
            <circle cx="1024" cy="1024" r="226.101" style="fill:rgb(93,149,204);"/>
        </g>
        <g transform="matrix(1.26887,0.339994,-0.339994,1.26887,72.8274,-623.479)">
            <path d="M1020.23,428.448C1020.5,426.574 1022.11,425.182 1024,425.182C1025.89,425.182 1027.5,426.574 1027.77,428.448C1041.8,526.35 1090.21,864.161 1090.21,864.161C1090.21,864.161 1363.31,659.524 1442.45,600.217C1443.97,599.082 1446.09,599.233 1447.43,600.572C1448.77,601.911 1448.92,604.03 1447.78,605.546C1388.48,684.693 1183.84,957.793 1183.84,957.793C1183.84,957.793 1521.65,1006.2 1619.55,1020.23C1621.43,1020.5 1622.82,1022.11 1622.82,1024C1622.82,1025.89 1621.43,1027.5 1619.55,1027.77C1521.65,1041.8 1183.84,1090.21 1183.84,1090.21C1183.84,1090.21 1388.48,1363.31 1447.78,1442.45C1448.92,1443.97 1448.77,1446.09 1447.43,1447.43C1446.09,1448.77 1443.97,1448.92 1442.45,1447.78C1363.31,1388.48 1090.21,1183.84 1090.21,1183.84C1090.21,1183.84 1041.8,1521.65 1027.77,1619.55C1027.5,1621.43 1025.89,1622.82 1024,1622.82C1022.11,1622.82 1020.5,1621.43 1020.23,1619.55C1006.2,1521.65 957.793,1183.84 957.793,1183.84C957.793,1183.84 684.693,1388.48 605.546,1447.78C604.03,1448.92 601.911,1448.77 600.572,1447.43C599.233,1446.09 599.082,1443.97 600.217,1442.45C659.524,1363.31 864.161,1090.21 864.161,1090.21C864.161,1090.21 526.35,1041.8 428.448,1027.77C426.574,1027.5 425.182,1025.89 425.182,1024C425.182,1022.11 426.574,1020.5 428.448,1020.23C526.35,1006.2 864.161,957.793 864.161,957.793C864.161,957.793 659.524,684.693 600.217,605.546C599.082,604.03 599.233,601.911 600.572,600.572C601.911,599.233 604.03,599.082 605.546,600.217C684.693,659.524 957.793,864.161 957.793,864.161C957.793,864.161 1006.2,526.35 1020.23,428.448Z" style="fill:rgb(93,149,204);"/>
        </g>
        <g transform="matrix(0.188096,0,0,0.188096,831.39,831.39)">
            <circle cx="1024" cy="1024" r="1024" style="fill:rgb(31,34,48);"/>
        </g>
    </g>
    <g transform="matrix(1.33252,0,0,1.33252,-340.501,-340.501)">
        <g id="Star">
            <circle cx="1024" cy="1024" r="85.143" style="fill:rgb(198,161,101);"/>
        </g>
    </g>
</svg>
